HIERARCHY
ROOT joint_Root
{
	OFFSET 0.0 0.0 0.0
	CHANNELS 6 Xposition Yposition Zposition Zrotation Xrotation Yrotation 
	JOINT Hips
	{
		OFFSET 4.5925 91.4895 -427.239
		CHANNELS 6 Xposition Yposition Zposition Zrotation Xrotation Yrotation 
		JOINT Spine
		{
			OFFSET 15.7357 0.0 0.0
			CHANNELS 6 Xposition Yposition Zposition Zrotation Xrotation Yrotation 
			JOINT Chest
			{
				OFFSET 8.98455 -0.406207 0.0
				CHANNELS 6 Xposition Yposition Zposition Zrotation Xrotation Yrotation 
				JOINT Neck
				{
					OFFSET 16.3773 0.0 0.0
					CHANNELS 6 Xposition Yposition Zposition Zrotation Xrotation Yrotation 
					JOINT Head
					{
						OFFSET 6.45672 0.0 0.0
						CHANNELS 6 Xposition Yposition Zposition Zrotation Xrotation Yrotation 
						End Site
						{
							OFFSET 0.0 0.0 0.0
						}
					}
				}
				JOINT Shoulder_L
				{
					OFFSET 12.9942 -0.242716 4.98039
					CHANNELS 6 Xposition Yposition Zposition Zrotation Xrotation Yrotation 
					JOINT UpperArm_L
					{
						OFFSET 5.34809 0.0 0.0
						CHANNELS 6 Xposition Yposition Zposition Zrotation Xrotation Yrotation 
						JOINT LowerArm_L
						{
							OFFSET 24.3286 1.87007e-05 0.0
							CHANNELS 6 Xposition Yposition Zposition Zrotation Xrotation Yrotation 
							JOINT Hand_L
							{
								OFFSET 22.2916 0.0 0.0
								CHANNELS 6 Xposition Yposition Zposition Zrotation Xrotation Yrotation 
								End Site
								{
									OFFSET 0.0 0.0 0.0
								}
							}
						}
					}
				}
				JOINT Shoulder_R
				{
					OFFSET 12.9945 -0.242716 -4.98039
					CHANNELS 6 Xposition Yposition Zposition Zrotation Xrotation Yrotation 
					JOINT UpperArm_R
					{
						OFFSET -5.34813 0.0 0.0
						CHANNELS 6 Xposition Yposition Zposition Zrotation Xrotation Yrotation 
						JOINT LowerArm_R
						{
							OFFSET -24.3289 0.000322201 0.0
							CHANNELS 6 Xposition Yposition Zposition Zrotation Xrotation Yrotation 
							JOINT Hand_R
							{
								OFFSET -22.2915 -0.000108084 0.0
								CHANNELS 6 Xposition Yposition Zposition Zrotation Xrotation Yrotation 
								End Site
								{
									OFFSET 0.0 0.0 0.0
								}
							}
						}
					}
				}
			}
		}
		JOINT UpperLeg_L
		{
			OFFSET -2.19248 -6.46944 0.0
			CHANNELS 6 Xposition Yposition Zposition Zrotation Xrotation Yrotation 
			JOINT LowerLeg_L
			{
				OFFSET 39.0811 0.0 -1.23785e-05
				CHANNELS 6 Xposition Yposition Zposition Zrotation Xrotation Yrotation 
				JOINT Foot_L
				{
					OFFSET 40.9854 0.0 -1.26872e-05
					CHANNELS 6 Xposition Yposition Zposition Zrotation Xrotation Yrotation 
					JOINT Toes_L
					{
						OFFSET 11.7543 0.0 0.0
						CHANNELS 6 Xposition Yposition Zposition Zrotation Xrotation Yrotation 
						End Site
						{
							OFFSET 0.0 0.0 0.0
						}
					}
				}
			}
		}
		JOINT UpperLeg_R
		{
			OFFSET -2.19251 6.46944 0.0
			CHANNELS 6 Xposition Yposition Zposition Zrotation Xrotation Yrotation 
			JOINT LowerLeg_R
			{
				OFFSET -39.0811 -0.00228153 -0.0401928
				CHANNELS 6 Xposition Yposition Zposition Zrotation Xrotation Yrotation 
				JOINT Foot_R
				{
					OFFSET -40.9854 0.0 0.0
					CHANNELS 6 Xposition Yposition Zposition Zrotation Xrotation Yrotation 
					JOINT Toes_R
					{
						OFFSET -11.7543 0.0 0.0
						CHANNELS 6 Xposition Yposition Zposition Zrotation Xrotation Yrotation 
						End Site
						{
							OFFSET 0.0 0.0 0.0
						}
					}
				}
			}
		}
	}
}
MOTION
Frames:	4
Frame Time:	0.0333333
0.000000 0.000000 0.000000 0.000000 0.000000 -0.000000 -0.127771 90.604300 -3.497610 89.031500 -3.019020 10.839000 15.735700 0.000005 -0.000001 89.102500 76.750400 -89.243600 8.984550 -0.406207 -0.000000 18.729700 -0.420288 -0.213600 16.377300 -0.000001 -0.000001 6.228790 -4.014800 2.296510 6.456720 -0.000001 -0.000000 -6.840590 -3.202100 0.303874 12.994200 -0.242716 4.980390 -91.230200 6.438770 -79.159400 5.348090 -0.000007 -0.000001 -53.957400 36.102600 -32.019700 24.328600 0.000019 0.000005 9.858760 21.648600 -25.223800 22.291600 -0.000001 0.000005 8.875850 5.219170 2.234020 12.994500 -0.242716 -4.980390 89.156300 10.040600 -85.171900 -5.348130 -0.000001 -0.000004 -55.406300 35.932600 -26.561000 -24.328900 0.000322 -0.000009 1.287730 3.279000 -21.470900 -22.291500 -0.000108 -0.000004 16.428300 5.419900 -3.595660 -2.192480 -6.469440 -0.000000 -174.711000 -10.669500 -2.596160 39.081100 -0.000007 -0.000012 -0.177213 0.271880 33.096900 40.985400 -0.000006 -0.000013 0.728254 5.784730 -69.593900 11.754300 -0.000000 0.000003 -0.000061 -0.000670 -16.603500 -2.192510 6.469440 -0.000001 174.498000 20.059600 178.900000 -39.081100 -0.002282 -0.040193 -0.178257 0.291027 31.957800 -40.985400 0.000008 0.000006 3.542290 13.674200 -69.648800 -11.754300 -0.000006 -0.000006 -0.003559 -0.046770 -18.475400
0.000000 0.000000 0.000000 0.000000 0.000000 -0.000000 -0.120206 90.601200 -3.505200 89.044800 -3.021780 10.852300 15.735700 0.000005 -0.000001 89.177200 76.752300 -89.310700 8.984550 -0.406207 -0.000000 18.726400 -0.385682 -0.204110 16.377300 -0.000001 -0.000001 6.319180 -4.074310 2.374850 6.456720 -0.000001 -0.000000 -7.040310 -3.274430 0.371743 12.994200 -0.242716 4.980390 -91.213500 6.345980 -79.151000 5.348090 -0.000007 -0.000001 -53.935000 35.704000 -32.019800 24.328600 0.000019 0.000005 10.437300 21.777500 -26.404900 22.291600 -0.000001 0.000005 8.921470 5.220650 2.196190 12.994500 -0.242716 -4.980390 89.147800 10.023700 -85.115500 -5.348130 -0.000001 -0.000004 -55.355500 35.915600 -26.566600 -24.328900 0.000322 -0.000009 1.300760 3.306010 -21.507300 -22.291500 -0.000108 -0.000004 16.468900 5.419920 -3.596400 -2.192480 -6.469440 -0.000000 -174.729000 -10.663800 -2.582790 39.081100 -0.000007 -0.000012 -0.175187 0.268697 33.104100 40.985400 -0.000006 -0.000013 0.730420 5.775730 -69.602500 11.754300 -0.000000 0.000003 -0.000061 -0.000674 -16.603700 -2.192510 6.469440 -0.000001 174.471000 20.032400 178.900000 -39.081100 -0.002282 -0.040193 -0.182222 0.297221 31.971800 -40.985400 0.000008 0.000006 3.485470 13.690600 -69.635800 -11.754300 -0.000006 -0.000006 -0.003607 -0.047291 -18.496600
0.000000 0.000000 0.000000 0.000000 0.000000 -0.000000 -0.117088 90.607000 -3.531020 89.046100 -3.001670 10.841900 15.735700 0.000005 -0.000001 89.183700 76.764300 -89.303600 8.984550 -0.406207 -0.000000 18.702500 -0.381103 -0.177781 16.377300 -0.000001 -0.000001 6.412410 -4.107960 2.408510 6.456720 -0.000001 -0.000000 -7.213300 -3.365760 0.452984 12.994200 -0.242716 4.980390 -91.206300 6.269040 -79.085400 5.348090 -0.000007 -0.000001 -53.868500 35.213100 -32.081700 24.328600 0.000019 0.000005 10.979900 21.624100 -27.765800 22.291600 -0.000001 0.000005 8.995800 5.220330 2.204360 12.994500 -0.242716 -4.980390 89.151800 9.992410 -85.123400 -5.348130 -0.000001 -0.000004 -55.332100 35.885600 -26.558400 -24.328900 0.000322 -0.000009 1.303790 3.314940 -21.500100 -22.291500 -0.000108 -0.000004 16.484100 5.419340 -3.576800 -2.192480 -6.469440 -0.000000 -174.746000 -10.659700 -2.619810 39.081100 -0.000007 -0.000012 -0.174745 0.268183 33.088100 40.985400 -0.000006 -0.000013 0.727921 5.743770 -69.561600 11.754300 -0.000000 0.000003 -0.000062 -0.000680 -16.603900 -2.192510 6.469440 -0.000001 174.467000 20.078700 178.885000 -39.081100 -0.002282 -0.040193 -0.182009 0.297259 31.939000 -40.985400 0.000008 0.000006 3.409190 13.701500 -69.576600 -11.754300 -0.000006 -0.000006 -0.003539 -0.046555 -18.466600
0.000000 0.000000 0.000000 0.000000 0.000000 -0.000000 -0.111936 90.607900 -3.555590 89.054100 -2.979820 10.853300 15.735700 0.000005 -0.000001 89.187300 76.762500 -89.300100 8.984550 -0.406207 -0.000000 18.706300 -0.378824 -0.163739 16.377300 -0.000001 -0.000001 6.475770 -4.133290 2.477590 6.456720 -0.000001 -0.000000 -7.407620 -3.407500 0.499555 12.994200 -0.242716 4.980390 -91.195100 6.182680 -79.037700 5.348090 -0.000007 -0.000001 -53.757600 34.582400 -32.180000 24.328600 0.000019 0.000005 11.651100 21.448100 -29.419000 22.291600 -0.000001 0.000005 9.005100 5.220440 2.201360 12.994500 -0.242716 -4.980390 89.158300 9.941790 -85.136000 -5.348130 -0.000001 -0.000004 -55.339100 35.842900 -26.583000 -24.328900 0.000322 -0.000009 1.272600 3.244130 -21.448700 -22.291500 -0.000108 -0.000004 16.450600 5.419380 -3.578310 -2.192480 -6.469440 -0.000000 -174.751000 -10.661400 -2.624690 39.081100 -0.000007 -0.000012 -0.176741 0.271286 33.084300 40.985400 -0.000006 -0.000013 0.744964 5.795590 -69.544500 11.754300 -0.000000 0.000003 -0.000066 -0.000716 -16.605200 -2.192510 6.469440 -0.000001 174.449000 20.120400 178.882000 -39.081100 -0.002282 -0.040193 -0.182358 0.297659 31.952800 -40.985400 0.000008 0.000006 3.470580 13.711800 -69.587300 -11.754300 -0.000006 -0.000006 -0.003596 -0.047171 -18.491700
